<svg height="512" viewBox="0 0 512 512" width="512" xmlns="http://www.w3.org/2000/svg"><g id="flat"><g fill="#92d1f7"><path d="m256 128a7.994 7.994 0 0 1 -4.116-1.14l-40-24a8 8 0 0 1 8.232-13.72l35.884 21.531 35.884-21.531a8 8 0 0 1 8.232 13.72l-40 24a7.994 7.994 0 0 1 -4.116 1.14z"/><path d="m256.006 96a8 8 0 0 1 -3.584-15.157l32-16a8 8 0 1 1 7.156 14.31l-32 16a7.976 7.976 0 0 1 -3.572.847z"/><path d="m255.994 96a7.976 7.976 0 0 1 -3.572-.847l-32-16a8 8 0 0 1 7.156-14.31l32 16a8 8 0 0 1 -3.584 15.157z"/><path d="m256 64a7.985 7.985 0 0 1 -3.578-.845l-16-8a8 8 0 0 1 7.156-14.31l12.422 6.211 12.422-6.211a8 8 0 1 1 7.156 14.31l-16 8a7.985 7.985 0 0 1 -3.578.845z"/><path d="m256 374.852a7.993 7.993 0 0 1 -4-1.073l-96-55.425a8 8 0 0 1 -4-6.928v-110.852a8 8 0 0 1 4-6.928l96-55.425a8 8 0 0 1 8 0l96 55.425a8 8 0 0 1 4 6.928v110.852a8 8 0 0 1 -4 6.928l-96 55.425a7.993 7.993 0 0 1 -4 1.073zm-88-68.045 88 50.807 88-50.807v-101.614l-88-50.807-88 50.807z"/><path d="m256 280a7.992 7.992 0 0 1 -4-1.072l-13.856-8a8 8 0 0 1 -4-6.928v-16a8 8 0 0 1 4-6.928l13.856-8a8 8 0 0 1 8 0l13.856 8a8 8 0 0 1 4 6.928v16a8 8 0 0 1 -4 6.928l-13.856 8a7.992 7.992 0 0 1 -4 1.072zm-5.856-20.619 5.856 3.382 5.856-3.382v-6.762l-5.856-3.382-5.856 3.382z"/><path d="m256 160a7.992 7.992 0 0 1 -4.438-1.344l-24-16a8 8 0 1 1 8.876-13.312l19.562 13.041 19.562-13.041a8 8 0 0 1 8.876 13.312l-24 16a7.992 7.992 0 0 1 -4.438 1.344z"/></g><path d="m256 216a8 8 0 0 1 -8-8v-184a8 8 0 0 1 16 0v184a8 8 0 0 1 -8 8z" fill="#5ebef7"/><path d="m97.445 218.641a8 8 0 0 1 -3.89-15l36.588-20.312-.705-41.841a8 8 0 0 1 16-.269l.784 46.64a8 8 0 0 1 -4.116 7.129l-40.786 22.646a7.972 7.972 0 0 1 -3.875 1.007z" fill="#92d1f7"/><path d="m110.517 180c-.162 0-.324 0-.487-.015a8 8 0 0 1 -7.507-8.464l2.144-35.713a8 8 0 0 1 15.972.959l-2.139 35.712a8 8 0 0 1 -7.983 7.521z" fill="#92d1f7"/><path d="m80.66 199.713a8 8 0 0 1 -4.415-14.677l29.855-19.713a8 8 0 1 1 8.815 13.352l-29.854 19.713a7.965 7.965 0 0 1 -4.401 1.325z" fill="#92d1f7"/><path d="m67.876 173.856a8 8 0 0 1 -4.416-14.676l11.59-7.653.833-13.864a8 8 0 0 1 15.971.959l-1.072 17.857a8 8 0 0 1 -3.577 6.2l-14.928 9.856a7.96 7.96 0 0 1 -4.401 1.321z" fill="#92d1f7"/><path d="m140.084 224.785a8 8 0 0 1 -3.551-15.173l21.075-10.421-1.508-23.462a8 8 0 1 1 15.967-1.029l1.856 28.784a8 8 0 0 1 -4.437 7.686l-25.856 12.784a7.967 7.967 0 0 1 -3.546.831z" fill="#92d1f7"/><path d="m214.425 240a7.963 7.963 0 0 1 -3.992-1.073l-159.349-92a8 8 0 1 1 8-13.856l159.349 92a8 8 0 0 1 -4.008 14.929z" fill="#5ebef7"/><path d="m137.44 378.638h-.14a8 8 0 0 1 -7.865-8.134l.705-41.841-36.585-20.312a8 8 0 1 1 7.765-13.989l40.78 22.638a8 8 0 0 1 4.116 7.129l-.784 46.64a8 8 0 0 1 -7.992 7.869z" fill="#92d1f7"/><path d="m110.5 348a7.96 7.96 0 0 1 -4.4-1.325l-29.855-19.715a8 8 0 0 1 8.816-13.352l29.856 19.713a8 8 0 0 1 -4.417 14.679z" fill="#92d1f7"/><path d="m112.646 383.71a8 8 0 0 1 -7.979-7.521l-2.144-35.712a8 8 0 0 1 15.972-.959l2.144 35.712a8 8 0 0 1 -7.507 8.465q-.245.015-.486.015z" fill="#92d1f7"/><path d="m83.861 381.854a8 8 0 0 1 -7.978-7.521l-.833-13.864-11.59-7.653a8 8 0 1 1 8.817-13.351l14.928 9.856a8 8 0 0 1 3.577 6.2l1.072 17.856a8 8 0 0 1 -7.506 8.465c-.163.007-.326.012-.487.012z" fill="#92d1f7"/><path d="m164.086 344.781c-.173 0-.347 0-.523-.016a8 8 0 0 1 -7.468-8.5l1.513-23.462-21.075-10.421a8 8 0 1 1 7.092-14.342l25.856 12.784a8 8 0 0 1 4.437 7.686l-1.856 28.79a8 8 0 0 1 -7.976 7.481z" fill="#92d1f7"/><path d="m55.091 380a8 8 0 0 1 -4.007-14.929l159.349-92a8 8 0 0 1 8 13.856l-159.349 92a7.967 7.967 0 0 1 -3.993 1.073z" fill="#5ebef7"/><path d="m295.992 424a7.964 7.964 0 0 1 -4.108-1.141l-35.884-21.534-35.884 21.531a8 8 0 0 1 -8.232-13.72l40-24a8 8 0 0 1 8.232 0l40 24a8 8 0 0 1 -4.124 14.864z" fill="#92d1f7"/><path d="m224.006 448a8 8 0 0 1 -3.584-15.157l32-16a8 8 0 1 1 7.156 14.31l-32 16a7.963 7.963 0 0 1 -3.572.847z" fill="#92d1f7"/><path d="m287.994 448a7.963 7.963 0 0 1 -3.572-.847l-32-16a8 8 0 1 1 7.156-14.31l32 16a8 8 0 0 1 -3.584 15.157z" fill="#92d1f7"/><path d="m271.994 472a7.963 7.963 0 0 1 -3.572-.847l-12.422-6.213-12.422 6.211a8 8 0 0 1 -7.156-14.31l16-8a8 8 0 0 1 7.156 0l16 8a8 8 0 0 1 -3.584 15.159z" fill="#92d1f7"/><path d="m279.993 384a7.96 7.96 0 0 1 -4.431-1.345l-19.562-13.044-19.562 13.041a8 8 0 0 1 -8.876-13.312l24-16a8 8 0 0 1 8.876 0l24 16a8 8 0 0 1 -4.445 14.66z" fill="#92d1f7"/><path d="m256 496a8 8 0 0 1 -8-8v-184a8 8 0 0 1 16 0v184a8 8 0 0 1 -8 8z" fill="#5ebef7"/><path d="m374.56 378.638a8 8 0 0 1 -8-7.866l-.784-46.64a8 8 0 0 1 4.124-7.132l40.785-22.641a8 8 0 0 1 7.765 13.989l-36.588 20.311.7 41.841a8 8 0 0 1 -7.865 8.134z" fill="#92d1f7"/><path d="m399.354 383.71q-.242 0-.486-.015a8 8 0 0 1 -7.507-8.465l2.144-35.712a8 8 0 0 1 15.972.959l-2.144 35.712a8 8 0 0 1 -7.979 7.521z" fill="#92d1f7"/><path d="m401.5 348a8 8 0 0 1 -4.415-14.677l29.856-19.713a8 8 0 1 1 8.816 13.352l-29.857 19.711a7.96 7.96 0 0 1 -4.4 1.327z" fill="#92d1f7"/><path d="m428.139 381.854c-.162 0-.324 0-.487-.015a8 8 0 0 1 -7.506-8.465l1.072-17.856a8 8 0 0 1 3.577-6.2l14.928-9.856a8 8 0 0 1 8.817 13.351l-11.59 7.653-.833 13.864a8 8 0 0 1 -7.978 7.524z" fill="#92d1f7"/><path d="m347.914 344.781a8 8 0 0 1 -7.976-7.485l-1.856-28.784a8 8 0 0 1 4.437-7.686l25.856-12.784a8 8 0 1 1 7.092 14.342l-21.075 10.421 1.513 23.462a8 8 0 0 1 -7.468 8.5c-.176.009-.35.014-.523.014z" fill="#92d1f7"/><path d="m456.909 380a7.967 7.967 0 0 1 -3.993-1.073l-159.349-92a8 8 0 0 1 8-13.856l159.349 92a8 8 0 0 1 -4.007 14.929z" fill="#5ebef7"/><path d="m414.555 218.641a7.95 7.95 0 0 1 -3.875-1.007l-40.78-22.641a8 8 0 0 1 -4.116-7.129l.784-46.64a8 8 0 0 1 16 .269l-.7 41.841 36.588 20.312a8 8 0 0 1 -3.89 15z" fill="#92d1f7"/><path d="m431.34 199.713a7.965 7.965 0 0 1 -4.4-1.325l-29.856-19.713a8 8 0 1 1 8.815-13.352l29.857 19.713a8 8 0 0 1 -4.415 14.677z" fill="#92d1f7"/><path d="m401.483 180a8 8 0 0 1 -7.978-7.52l-2.144-35.713a8 8 0 0 1 15.972-.959l2.144 35.713a8 8 0 0 1 -7.507 8.464c-.163.009-.325.015-.487.015z" fill="#92d1f7"/><path d="m444.124 173.856a7.957 7.957 0 0 1 -4.4-1.325l-14.924-9.856a8 8 0 0 1 -3.577-6.2l-1.072-17.857a8 8 0 0 1 15.971-.959l.833 13.864 11.59 7.653a8 8 0 0 1 -4.416 14.676z" fill="#92d1f7"/><path d="m371.916 224.785a7.957 7.957 0 0 1 -3.541-.831l-25.856-12.784a8 8 0 0 1 -4.437-7.686l1.856-28.784a8 8 0 1 1 15.967 1.029l-1.513 23.462 21.075 10.421a8 8 0 0 1 -3.551 15.173z" fill="#92d1f7"/><path d="m297.575 240a8 8 0 0 1 -4.008-14.929l159.349-92a8 8 0 1 1 8 13.856l-159.349 92a7.963 7.963 0 0 1 -3.992 1.073z" fill="#5ebef7"/><path d="m304 347.139a8 8 0 0 1 -4.726-1.545l-43.274-31.68-43.274 31.68a8 8 0 0 1 -12.679-7.321l5.8-53.316-49.075-21.637a8 8 0 0 1 0-14.64l49.072-21.637-5.8-53.316a8 8 0 0 1 12.679-7.321l43.277 31.68 43.274-31.68a8 8 0 0 1 12.679 7.321l-5.8 53.316 49.072 21.637a8 8 0 0 1 0 14.64l-49.072 21.637 5.8 53.316a8 8 0 0 1 -7.953 8.866zm-48-51.139a7.991 7.991 0 0 1 4.726 1.545l33.359 24.421-4.469-41.1a8 8 0 0 1 4.726-8.185l37.829-16.681-37.829-16.68a8 8 0 0 1 -4.726-8.185l4.469-41.1-33.359 24.421a8 8 0 0 1 -9.452 0l-33.359-24.421 4.469 41.1a8 8 0 0 1 -4.726 8.185l-37.829 16.68 37.829 16.68a8 8 0 0 1 4.726 8.185l-4.469 41.1 33.359-24.421a7.991 7.991 0 0 1 4.726-1.544z" fill="#5ebef7"/></g></svg>