<?xml version="1.0" encoding="iso-8859-1"?>
<!-- Generator: Adobe Illustrator 19.0.0, SVG Export Plug-In . SVG Version: 6.00 Build 0)  -->
<svg xmlns="http://www.w3.org/2000/svg" xmlns:xlink="http://www.w3.org/1999/xlink" version="1.1" id="Layer_1" x="0px" y="0px" viewBox="0 0 512 512" style="enable-background:new 0 0 512 512;" xml:space="preserve" width="512" height="512">
<g>
	<g>
		<path style="fill:#76E2F8;" d="M479.001,256l-152.8-40.501l40.8-151.5l-111,110.7l-111-110.7l40.8,151.5L32.999,256l152.8,40.499    l-40.8,151.5l111-110.7l111,110.7l-40.8-151.5L479.001,256z"/>
	</g>
	<polygon style="fill:#28CBF7;" points="326.201,296.499 367,447.999 256,337.299 256,174.699 367,63.999 326.201,215.499    479.001,256  "/>
	<polygon style="fill:#9BFCFF;" points="286,256 393.401,318.1 378.401,343.9 271,282.1 271,406 241,406 241,282.1 133.599,343.9    118.599,318.1 226,256 118.599,193.9 133.599,168.1 241,229.9 241,106 271,106 271,229.9 378.401,168.1 393.401,193.9  "/>
	<polygon style="fill:#76E2F8;" points="286,256 393.401,318.1 378.401,343.9 271,282.1 271,406 256,406 256,106 271,106 271,229.9    378.401,168.1 393.401,193.9  "/>
	<g>
		<path style="fill:#9BFCFF;" d="M256,0l-49.2,77.8l49.2,49.499L305.2,77.8L256,0z"/>
	</g>
	<g>
		<path style="fill:#9BFCFF;" d="M256,384.699L206.8,434.2L256,512l49.2-77.8L256,384.699z"/>
	</g>
	<g>
		<path style="fill:#9BFCFF;" d="M77.113,209.652l-40.375-79.673l89.682-5.728l18.047,67.354L77.113,209.652z"/>
	</g>
	<g>
		<path style="fill:#76E2F8;" d="M385.58,387.748l-18.047-67.354l67.354-18.047l39.375,79.673L385.58,387.748z"/>
	</g>
	<g>
		<path style="fill:#9BFCFF;" d="M126.42,387.748l-89.682-5.728l40.375-79.673l67.354,18.047L126.42,387.748z"/>
	</g>
	<g>
		<path style="fill:#76E2F8;" d="M434.887,209.652l-67.354-18.047l18.047-67.354l88.682,5.728L434.887,209.652z"/>
	</g>
	<rect x="421" y="61" style="fill:#76E2F8;" width="30" height="30"/>
	<rect x="301" style="fill:#76E2F8;" width="30" height="30"/>
	<rect x="181" style="fill:#9BFCFF;" width="30" height="30"/>
	<rect x="482" y="181" style="fill:#76E2F8;" width="30" height="30"/>
	<rect x="61" y="61" style="fill:#9BFCFF;" width="30" height="30"/>
	<rect y="181" style="fill:#9BFCFF;" width="30" height="30"/>
	<rect y="301" style="fill:#9BFCFF;" width="30" height="30"/>
	<rect x="91" y="421" style="fill:#9BFCFF;" width="30" height="30"/>
	<rect x="181" y="482" style="fill:#EFE2DD;" width="30" height="30"/>
	<rect x="301" y="482" style="fill:#76E2F8;" width="30" height="30"/>
	<rect x="482" y="301" style="fill:#76E2F8;" width="30" height="30"/>
	<rect x="391" y="421" style="fill:#76E2F8;" width="30" height="30"/>
	<polygon style="fill:#76E2F8;" points="256,384.699 305.2,434.2 256,512  "/>
	<polygon style="fill:#76E2F8;" points="305.2,77.8 256,127.299 256,0  "/>
</g>















</svg>
