<svg xmlns="http://www.w3.org/2000/svg" xmlns:svgjs="http://svgjs.com/svgjs" xmlns:xlink="http://www.w3.org/1999/xlink" style="enable-background:new 0 0 512 512" width="512" height="512" x="0" y="0" version="1.1" viewBox="0 0 512 512" xml:space="preserve"><g><path xmlns="http://www.w3.org/2000/svg" fill="#e82201" d="m256 80.632 25.521-30.111a55.905 55.905 0 0 1 56.207-18.089l5.327 1.332a55.9 55.9 0 0 1 36.445 29.236 55.9 55.9 0 0 1 0 50l-19.5 39-72-23.368z" data-original="#df391d"/><path xmlns="http://www.w3.org/2000/svg" fill="#9d3429" d="m379.5 63a55.9 55.9 0 0 0 -36.444-29.234l-5.327-1.332c-.89-.223-1.782-.414-2.675-.591a55.855 55.855 0 0 1 12.446 16.4 55.9 55.9 0 0 1 0 50 50.676 50.676 0 0 1 -60.971 25.538l-2.25-.73 3.721 5.581 72 23.368 19.5-39a55.9 55.9 0 0 0 0-50z" data-original="#912e23"/><path xmlns="http://www.w3.org/2000/svg" fill="#c44235" d="m216.484 89.116-6-6a24.117 24.117 0 0 1 8.585-39.634 82.4 82.4 0 0 1 57.862 0 82.4 82.4 0 0 1 48.22 48.218l13.582 36.22z" data-original="#c44235"/><path xmlns="http://www.w3.org/2000/svg" fill="#ef705f" d="m223.657 69.246a82.4 82.4 0 0 1 57.863 0 82.4 82.4 0 0 1 48.219 48.219l3.235 8.627 5.759 1.828-13.582-36.22a82.4 82.4 0 0 0 -48.219-48.219 82.4 82.4 0 0 0 -57.862 0 24.11 24.11 0 0 0 -9.179 39 23.843 23.843 0 0 1 13.766-13.235z" data-original="#ef705f"/><circle xmlns="http://www.w3.org/2000/svg" cx="256" cy="176.632" r="96" fill="#e5f1f9" data-original="#e5f1f9"/><path xmlns="http://www.w3.org/2000/svg" fill="#8ac4dd" d="m288.579 86.306a96.02 96.02 0 0 1 -85.158 170.652 96.011 96.011 0 1 0 85.158-170.652z" data-original="#8ac4dd"/><path xmlns="http://www.w3.org/2000/svg" fill="#67342c" d="m456 296.632h-28.686l26.343-26.343-11.314-11.314-82.513 82.513.17 22.458 51.314-51.314h44.686z" data-original="#67342c"/><path xmlns="http://www.w3.org/2000/svg" fill="#67342c" d="m66.054 269.983 36.033 40.037-32.649 11.033 5.124 15.158 39.18-13.24 38.258 42.508.452-23.415-74.506-82.784z" data-original="#67342c"/><path xmlns="http://www.w3.org/2000/svg" fill="#8ac4dd" d="m136.926 464h-112.926a163.882 163.882 0 0 1 115.882-48h76.118v48z" data-original="#8ac4dd"/><path xmlns="http://www.w3.org/2000/svg" fill="#afd9e8" d="m139.882 416a163.882 163.882 0 0 0 -115.882 48h24.28a163.877 163.877 0 0 1 91.6-28h76.12v-20z" data-original="#afd9e8"/><path xmlns="http://www.w3.org/2000/svg" fill="#e5f1f9" d="m272.4 472.632h-32.586a95.815 95.815 0 0 1 -67.6-27.911 95.814 95.814 0 0 1 -28.214-67.903 173.735 173.735 0 0 1 51.155-123.111l5.1-5.075h111.745l5.119 5.119a173.714 173.714 0 0 1 50.881 122.837v.446a95.6 95.6 0 0 1 -28 67.6 95.6 95.6 0 0 1 -67.6 27.998z" data-original="#e5f1f9"/><path xmlns="http://www.w3.org/2000/svg" fill="#8ac4dd" d="m317.119 253.75-5.119-5.118h-111.747s-1.94 1.93-5.1 5.075a173.686 173.686 0 0 0 -38.592 58.293h99.873a163.885 163.885 0 0 0 47.566 104l27.9-27.9a95.6 95.6 0 0 1 -91.5 67.9h-32.586a95.8 95.8 0 0 1 -27.389-4 95.809 95.809 0 0 0 59.389 20.634h32.586a95.6 95.6 0 0 0 95.6-95.6v-.446a173.723 173.723 0 0 0 -50.881-122.838zm18.881 106.65a95.551 95.551 0 0 1 -2.369 21.145 109.254 109.254 0 0 1 -29.503-69.545h7.689a21.942 21.942 0 0 1 21.607 18.191 173.414 173.414 0 0 1 2.576 29.765z" data-original="#8ac4dd"/><path xmlns="http://www.w3.org/2000/svg" fill="#16696d" d="m360 296.632h-208l24-48h160z" data-original="#16696d"/><path xmlns="http://www.w3.org/2000/svg" fill="#30a5a5" d="m200 248.632-24 48h16l24-48z" data-original="#30a5a5"/><path xmlns="http://www.w3.org/2000/svg" fill="#30a5a5" d="m248 248.632-24 48h16l24-48z" data-original="#30a5a5"/><path xmlns="http://www.w3.org/2000/svg" fill="#074349" d="m336 248.632h-48l24 48h48z" data-original="#074349"/><path xmlns="http://www.w3.org/2000/svg" fill="#16696d" d="m264 248.632v28.117a163.882 163.882 0 0 0 48 115.883l32-32a109.258 109.258 0 0 1 -32-77.255v-34.745z" data-original="#16696d"/><path xmlns="http://www.w3.org/2000/svg" fill="#30a5a5" d="m332.678 347.322-12.678 12.678a163.882 163.882 0 0 1 -47.933-111.368h-8.067v28.117a163.882 163.882 0 0 0 48 115.883l32-32a109.241 109.241 0 0 1 -11.322-13.31z" data-original="#30a5a5"/><path xmlns="http://www.w3.org/2000/svg" fill="#8ac4dd" d="m392 488h-280l17.373-17.373a77.254 77.254 0 0 1 54.627-22.627h16l1.373-1.373a77.254 77.254 0 0 1 54.627-22.627 77.254 77.254 0 0 1 54.627 22.627l9.373 9.373h8a77.254 77.254 0 0 1 54.627 22.627z" data-original="#8ac4dd"/><path xmlns="http://www.w3.org/2000/svg" fill="#afd9e8" d="m184 468h16l1.373-1.373a77.254 77.254 0 0 1 54.627-22.627 77.254 77.254 0 0 1 54.627 22.627l9.373 9.373h8a77.235 77.235 0 0 1 41.311 12h22.689l-9.373-9.373a77.254 77.254 0 0 0 -54.627-22.627h-8l-9.373-9.373a77.254 77.254 0 0 0 -54.627-22.627 77.254 77.254 0 0 0 -54.627 22.627l-1.373 1.373h-16a77.254 77.254 0 0 0 -54.627 22.627l-17.373 17.373h20.134a77.251 77.251 0 0 1 51.866-20z" data-original="#afd9e8"/><circle xmlns="http://www.w3.org/2000/svg" cx="224" cy="336.632" r="8" fill="#67342c" data-original="#67342c"/><circle xmlns="http://www.w3.org/2000/svg" cx="224" cy="392.632" r="8" fill="#67342c" data-original="#67342c"/><path xmlns="http://www.w3.org/2000/svg" fill="#ffc200" d="m120 191.041a9.444 9.444 0 0 1 7.891-9.315l76.734-12.789a22.408 22.408 0 0 1 19.529 6.258 22.408 22.408 0 0 1 0 31.691 22.408 22.408 0 0 1 -19.529 6.258l-76.734-12.789a9.444 9.444 0 0 1 -7.891-9.314z" data-original="#eac654"/><path xmlns="http://www.w3.org/2000/svg" fill="#e0b329" d="m224.154 193.436a22.406 22.406 0 0 1 -19.529 6.259l-76.734-12.789a9.421 9.421 0 0 1 -5.076-2.59 9.442 9.442 0 0 0 5.076 16.04l76.734 12.789a22.4 22.4 0 0 0 25.049-28.829 22.284 22.284 0 0 1 -5.52 9.12z" data-original="#e0b329"/><path xmlns="http://www.w3.org/2000/svg" fill="#afd9e8" d="m248 144.955 11.312 11.315a14.646 14.646 0 0 1 20.688 0l11.312-11.315a30.663 30.663 0 0 0 -43.312 0z" data-original="#afd9e8"/><path xmlns="http://www.w3.org/2000/svg" fill="#afd9e8" d="m184 144.955 11.312 11.315a14.646 14.646 0 0 1 20.688 0l11.312-11.315a30.663 30.663 0 0 0 -43.312 0z" data-original="#afd9e8"/><path xmlns="http://www.w3.org/2000/svg" fill="#67342c" d="m242.344 137.6 11.312 11.314a14.646 14.646 0 0 1 20.688 0l11.312-11.314a30.661 30.661 0 0 0 -43.312 0z" data-original="#67342c"/><path xmlns="http://www.w3.org/2000/svg" fill="#67342c" d="m178.344 137.6 11.312 11.314a14.646 14.646 0 0 1 20.688 0l11.312-11.314a30.661 30.661 0 0 0 -43.312 0z" data-original="#67342c"/><path xmlns="http://www.w3.org/2000/svg" fill="#afd9e8" d="m488 432-9.373-9.373a77.254 77.254 0 0 0 -54.627-22.627 77.254 77.254 0 0 0 -54.627 22.627l-9.373 9.373z" data-original="#afd9e8"/></g></svg>