<?xml version="1.0"?>
<svg xmlns="http://www.w3.org/2000/svg" xmlns:xlink="http://www.w3.org/1999/xlink" xmlns:svgjs="http://svgjs.com/svgjs" version="1.1" width="512" height="512" x="0" y="0" viewBox="0 0 512 512" style="enable-background:new 0 0 512 512" xml:space="preserve" class=""><g>
<g xmlns="http://www.w3.org/2000/svg">
	<g>
		<path style="" d="M479.001,256l-152.8-40.501l40.8-151.5l-111,110.7l-111-110.7l40.8,151.5L32.999,256l152.8,40.499    l-40.8,151.5l111-110.7l111,110.7l-40.8-151.5L479.001,256z" fill="#76e2f8" data-original="#76e2f8" class=""/>
	</g>
	<polygon style="" points="326.201,296.499 367,447.999 256,337.299 256,174.699 367,63.999 326.201,215.499    479.001,256  " fill="#28cbf7" data-original="#28cbf7" class=""/>
	<polygon style="" points="286,256 393.401,318.1 378.401,343.9 271,282.1 271,406 241,406 241,282.1 133.599,343.9    118.599,318.1 226,256 118.599,193.9 133.599,168.1 241,229.9 241,106 271,106 271,229.9 378.401,168.1 393.401,193.9  " fill="#d83386" data-original="#9bfcff" class=""/>
	<polygon style="" points="286,256 393.401,318.1 378.401,343.9 271,282.1 271,406 256,406 256,106 271,106 271,229.9    378.401,168.1 393.401,193.9  " fill="#76e2f8" data-original="#76e2f8" class=""/>
	<g>
		<path style="" d="M256,0l-49.2,77.8l49.2,49.499L305.2,77.8L256,0z" fill="#d83386" data-original="#9bfcff" class=""/>
	</g>
	<g>
		<path style="" d="M256,384.699L206.8,434.2L256,512l49.2-77.8L256,384.699z" fill="#d83386" data-original="#9bfcff" class=""/>
	</g>
	<g>
		<path style="" d="M77.113,209.652l-40.375-79.673l89.682-5.728l18.047,67.354L77.113,209.652z" fill="#d83386" data-original="#9bfcff" class=""/>
	</g>
	<g>
		<path style="" d="M385.58,387.748l-18.047-67.354l67.354-18.047l39.375,79.673L385.58,387.748z" fill="#76e2f8" data-original="#76e2f8" class=""/>
	</g>
	<g>
		<path style="" d="M126.42,387.748l-89.682-5.728l40.375-79.673l67.354,18.047L126.42,387.748z" fill="#d83386" data-original="#9bfcff" class=""/>
	</g>
	<g>
		<path style="" d="M434.887,209.652l-67.354-18.047l18.047-67.354l88.682,5.728L434.887,209.652z" fill="#76e2f8" data-original="#76e2f8" class=""/>
	</g>
	<rect x="421" y="61" style="" width="30" height="30" fill="#76e2f8" data-original="#76e2f8" class=""/>
	<rect x="301" style="" width="30" height="30" fill="#76e2f8" data-original="#76e2f8" class=""/>
	<rect x="181" style="" width="30" height="30" fill="#d83386" data-original="#9bfcff" class=""/>
	<rect x="482" y="181" style="" width="30" height="30" fill="#76e2f8" data-original="#76e2f8" class=""/>
	<rect x="61" y="61" style="" width="30" height="30" fill="#d83386" data-original="#9bfcff" class=""/>
	<rect y="181" style="" width="30" height="30" fill="#d83386" data-original="#9bfcff" class=""/>
	<rect y="301" style="" width="30" height="30" fill="#d83386" data-original="#9bfcff" class=""/>
	<rect x="91" y="421" style="" width="30" height="30" fill="#d83386" data-original="#9bfcff" class=""/>
	<rect x="181" y="482" style="" width="30" height="30" fill="#efe2dd" data-original="#efe2dd" class=""/>
	<rect x="301" y="482" style="" width="30" height="30" fill="#76e2f8" data-original="#76e2f8" class=""/>
	<rect x="482" y="301" style="" width="30" height="30" fill="#76e2f8" data-original="#76e2f8" class=""/>
	<rect x="391" y="421" style="" width="30" height="30" fill="#76e2f8" data-original="#76e2f8" class=""/>
	<polygon style="" points="256,384.699 305.2,434.2 256,512  " fill="#76e2f8" data-original="#76e2f8" class=""/>
	<polygon style="" points="305.2,77.8 256,127.299 256,0  " fill="#76e2f8" data-original="#76e2f8" class=""/>
</g>















</g></svg>
