<svg xmlns="http://www.w3.org/2000/svg" xmlns:svgjs="http://svgjs.com/svgjs" xmlns:xlink="http://www.w3.org/1999/xlink" style="enable-background:new 0 0 512 512" width="512" height="512" x="0" y="0" version="1.1" viewBox="0 0 128 128" xml:space="preserve"><g><path xmlns="http://www.w3.org/2000/svg" fill="#197aff" d="M122.427,82.2l-14.592,2.49L90.983,74.96,115.846,64,90.988,53.037l16.847-9.726,14.592,2.49,1.345-7.885L112.51,35.993l3.966-10.716-7.5-2.777-5.14,13.883L86.989,46.109,89.926,19.1,68,35.152v-16.9L77.453,6.855,71.3,1.747,64,10.541,56.7,1.747,50.547,6.855,60,18.248v16.9L38.084,19.1l2.938,27.014L24.165,36.383,19.026,22.5l-7.5,2.777L15.49,35.993,4.227,37.916,5.573,45.8l14.592-2.49,16.851,9.728L12.164,64,37.021,74.958,20.165,84.689,5.573,82.2,4.227,90.084,15.49,92.007l-3.967,10.716,7.5,2.777,5.139-13.883,16.856-9.732-2.937,27.008L60,92.849v16.9l-9.453,11.392,6.156,5.108,7.3-8.793,7.3,8.793,6.156-5.108L68,109.747v-16.9l21.926,16.051-2.936-27,16.844,9.725,5.14,13.883,7.5-2.777L112.51,92.007l11.262-1.923ZM96.018,64,82.4,70,72,64l10.4-6.006ZM80.012,36.273,78.4,51.066,68,57.072V45.066ZM48,36.274l12,8.785V57.072l-10.392-6ZM31.993,64,45.6,58,56,64,45.607,70ZM48,91.72l1.609-14.792,10.393-6V82.935Zm32.014,0L68,82.928v-12l10.4,6.007Z" data-original="#81c8ee"/></g></svg>